<svg width="50" height="50" viewBox="0 0 50 50" fill="none" xmlns="http://www.w3.org/2000/svg">
<path d="M25 0C11.2149 0 0 11.2149 0 25C0 38.7851 11.2149 50 25 50C38.7851 50 50 38.7851 50 25C50 11.2149 38.7851 0 25 0ZM25 46.4286C13.1843 46.4286 3.57143 36.8157 3.57143 25C3.57143 13.1843 13.1843 3.57143 25 3.57143C36.8157 3.57143 46.4286 13.1843 46.4286 25C46.4286 36.8157 36.8157 46.4286 25 46.4286Z" fill="#007AFF"/>
<path d="M32.6609 17.3389C31.9635 16.6415 30.8329 16.6415 30.1355 17.3389L24.9998 22.4747L19.8639 17.3387C19.1665 16.6413 18.0359 16.6413 17.3385 17.3387C16.6411 18.0362 16.6411 19.1667 17.3385 19.8641L22.4744 25L17.3385 30.136C16.6411 30.8334 16.6411 31.9639 17.3385 32.6614C17.6871 33.01 18.1442 33.1844 18.6012 33.1844C19.0581 33.1844 19.5151 33.01 19.8639 32.6614L24.9998 27.5254L30.1357 32.6614C30.4843 33.01 30.9415 33.1844 31.3984 33.1844C31.8554 33.1844 32.3123 33.01 32.6611 32.6614C33.3585 31.9639 33.3585 30.8334 32.6611 30.136L27.5252 25L32.6611 19.8641C33.3583 19.1669 33.3583 18.0362 32.6609 17.3389Z" fill="#007AFF"/>
</svg>
