<svg width="181" height="181" viewBox="0 0 181 181" fill="none" xmlns="http://www.w3.org/2000/svg">
<g clip-path="url(#clip0)">
<path d="M175.884 151.185L130.786 106.087C127.448 102.749 123.094 101.049 118.719 100.978C135.638 75.7717 132.971 41.2299 110.712 18.9709C85.4183 -6.32265 44.2631 -6.32265 18.9695 18.9709C-6.32452 44.2644 -6.32452 85.4201 18.9695 110.714C41.2286 132.973 75.7703 135.639 100.977 118.72C101.048 123.095 102.748 127.449 106.086 130.788L151.183 175.885C158.004 182.706 169.063 182.706 175.884 175.885C182.705 169.064 182.705 158.005 175.884 151.185ZM96.5982 96.5991C79.0873 114.11 50.5951 114.11 33.0841 96.5991C15.5732 79.0882 15.5732 50.5959 33.0841 33.085C50.5951 15.5741 79.0873 15.5741 96.5982 33.085C114.109 50.5954 114.109 79.0882 96.5982 96.5991Z" fill="#474747"/>
<circle cx="48.5" cy="51.5" r="8.5" fill="#474747"/>
<circle cx="78.5" cy="51.5" r="8.5" fill="#474747"/>
<path d="M41.9277 80.4134L39.7308 78.0921C39.6415 77.9978 39.5651 77.8922 39.5033 77.778C39.2441 77.2987 38.743 77 38.1981 77H38.055H37.6885C37.2635 77 36.8542 77.1602 36.5422 77.4487L36.4984 77.4892C36.1807 77.783 36 78.196 36 78.6288C36 78.8082 36.0311 78.9863 36.092 79.1552L36.285 79.6905C36.4368 80.1115 36.6465 80.5091 36.9082 80.8721L37.5413 81.75L39.5963 84.125L42.1651 86.5L46.789 89.825L49.0382 91.0727C50.9605 92.1391 52.9675 93.0451 55.0387 93.7817L56.0513 94.1417C57.7503 94.7459 59.5026 95.1882 61.2848 95.4629C63.5999 95.8196 65.9501 95.891 68.2826 95.6753L69.9083 95.525C72.2967 95.2095 74.6373 94.6012 76.8771 93.7137L77.1009 93.625L80.1835 92.2L83.2661 90.3L86.3486 87.925L88.4037 86.025L88.5586 85.8817C89.8115 84.7234 90.8087 83.3161 91.4862 81.75L91.9075 80.5816C91.9687 80.4118 92 80.2327 92 80.0522V80.0378C92 79.3614 91.559 78.7641 90.9126 78.5649C90.6169 78.4737 90.3005 78.4737 90.0048 78.5649L89.6454 78.6757C89.169 78.8225 88.7412 79.0955 88.4074 79.4658L86.9469 81.0862C86.5487 81.528 86.1144 81.9357 85.6483 82.305L82.7523 84.6L82.5287 84.7809C79.9514 86.8659 77.0846 88.565 74.0183 89.825L72.8024 90.2466C70.8865 90.9108 68.8729 91.25 66.8451 91.25C65.4666 91.25 64.0926 91.0933 62.7495 90.7828L58.6055 89.825L54.7041 88.4377C52.8556 87.7803 51.0644 86.9717 49.3488 86.02L48.9325 85.7891C47.5059 84.9977 46.1465 84.0908 44.8679 83.0776L44.6349 82.893C43.6746 82.132 42.7699 81.3033 41.9277 80.4134Z" fill="#474747" stroke="#474747" stroke-width="5"/>
</g>
<defs>
<clipPath id="clip0">
<rect width="181" height="181" fill="white"/>
</clipPath>
</defs>
</svg>
